<mxfile host="app.diagrams.net" modified="2023-08-08T13:14:46.696Z" agent="Mozilla/5.0 (Windows NT 10.0; Win64; x64) AppleWebKit/537.36 (KHTML, like Gecko) Chrome/115.0.0.0 Safari/537.36 Edg/115.0.1901.188" etag="AEA0rfMiKumyuqvlx1LD" version="21.6.6" type="github">
  <diagram name="Page-1" id="2YBvvXClWsGukQMizWep">
    <mxGraphModel dx="1562" dy="909" grid="1" gridSize="10" guides="1" tooltips="1" connect="1" arrows="1" fold="1" page="1" pageScale="1" pageWidth="850" pageHeight="1100" math="0" shadow="0">
      <root>
        <mxCell id="0" />
        <mxCell id="1" parent="0" />
        <mxCell id="aM9ryv3xv72pqoxQDRHE-1" value="用户" style="shape=umlLifeline;perimeter=lifelinePerimeter;whiteSpace=wrap;html=1;container=0;dropTarget=0;collapsible=0;recursiveResize=0;outlineConnect=0;portConstraint=eastwest;newEdgeStyle={&quot;edgeStyle&quot;:&quot;elbowEdgeStyle&quot;,&quot;elbow&quot;:&quot;vertical&quot;,&quot;curved&quot;:0,&quot;rounded&quot;:0};" parent="1" vertex="1">
          <mxGeometry x="40" y="40" width="100" height="840" as="geometry" />
        </mxCell>
        <mxCell id="aM9ryv3xv72pqoxQDRHE-2" value="" style="html=1;points=[];perimeter=orthogonalPerimeter;outlineConnect=0;targetShapes=umlLifeline;portConstraint=eastwest;newEdgeStyle={&quot;edgeStyle&quot;:&quot;elbowEdgeStyle&quot;,&quot;elbow&quot;:&quot;vertical&quot;,&quot;curved&quot;:0,&quot;rounded&quot;:0};" parent="aM9ryv3xv72pqoxQDRHE-1" vertex="1">
          <mxGeometry x="45" y="70" width="10" height="50" as="geometry" />
        </mxCell>
        <mxCell id="zECthKUtIngzaGEKfs0k-7" value="" style="html=1;points=[];perimeter=orthogonalPerimeter;outlineConnect=0;targetShapes=umlLifeline;portConstraint=eastwest;newEdgeStyle={&quot;edgeStyle&quot;:&quot;elbowEdgeStyle&quot;,&quot;elbow&quot;:&quot;vertical&quot;,&quot;curved&quot;:0,&quot;rounded&quot;:0};" parent="aM9ryv3xv72pqoxQDRHE-1" vertex="1">
          <mxGeometry x="45" y="140" width="10" height="50" as="geometry" />
        </mxCell>
        <mxCell id="zECthKUtIngzaGEKfs0k-28" value="" style="html=1;points=[];perimeter=orthogonalPerimeter;outlineConnect=0;targetShapes=umlLifeline;portConstraint=eastwest;newEdgeStyle={&quot;edgeStyle&quot;:&quot;elbowEdgeStyle&quot;,&quot;elbow&quot;:&quot;vertical&quot;,&quot;curved&quot;:0,&quot;rounded&quot;:0};" parent="aM9ryv3xv72pqoxQDRHE-1" vertex="1">
          <mxGeometry x="45" y="590" width="10" height="200" as="geometry" />
        </mxCell>
        <mxCell id="aM9ryv3xv72pqoxQDRHE-5" value="应用目录" style="shape=umlLifeline;perimeter=lifelinePerimeter;whiteSpace=wrap;html=1;container=0;dropTarget=0;collapsible=0;recursiveResize=0;outlineConnect=0;portConstraint=eastwest;newEdgeStyle={&quot;edgeStyle&quot;:&quot;elbowEdgeStyle&quot;,&quot;elbow&quot;:&quot;vertical&quot;,&quot;curved&quot;:0,&quot;rounded&quot;:0};" parent="1" vertex="1">
          <mxGeometry x="220" y="40" width="100" height="840" as="geometry" />
        </mxCell>
        <mxCell id="aM9ryv3xv72pqoxQDRHE-6" value="" style="html=1;points=[];perimeter=orthogonalPerimeter;outlineConnect=0;targetShapes=umlLifeline;portConstraint=eastwest;newEdgeStyle={&quot;edgeStyle&quot;:&quot;elbowEdgeStyle&quot;,&quot;elbow&quot;:&quot;vertical&quot;,&quot;curved&quot;:0,&quot;rounded&quot;:0};" parent="aM9ryv3xv72pqoxQDRHE-5" vertex="1">
          <mxGeometry x="45" y="80" width="10" height="40" as="geometry" />
        </mxCell>
        <mxCell id="aM9ryv3xv72pqoxQDRHE-7" value="1.打开应用目录" style="html=1;verticalAlign=bottom;endArrow=block;edgeStyle=elbowEdgeStyle;elbow=vertical;curved=0;rounded=0;" parent="1" source="aM9ryv3xv72pqoxQDRHE-2" target="aM9ryv3xv72pqoxQDRHE-6" edge="1">
          <mxGeometry relative="1" as="geometry">
            <mxPoint x="195" y="130" as="sourcePoint" />
            <Array as="points">
              <mxPoint x="180" y="120" />
            </Array>
          </mxGeometry>
        </mxCell>
        <mxCell id="aM9ryv3xv72pqoxQDRHE-9" value="展示已审批通过的应用" style="html=1;verticalAlign=bottom;endArrow=block;edgeStyle=elbowEdgeStyle;elbow=vertical;curved=0;rounded=0;" parent="1" source="aM9ryv3xv72pqoxQDRHE-6" target="aM9ryv3xv72pqoxQDRHE-2" edge="1">
          <mxGeometry relative="1" as="geometry">
            <mxPoint x="175" y="160" as="sourcePoint" />
            <Array as="points">
              <mxPoint x="190" y="160" />
            </Array>
            <mxPoint x="100" y="160" as="targetPoint" />
            <mxPoint as="offset" />
          </mxGeometry>
        </mxCell>
        <mxCell id="zECthKUtIngzaGEKfs0k-1" value="应用编目" style="shape=umlLifeline;perimeter=lifelinePerimeter;whiteSpace=wrap;html=1;container=0;dropTarget=0;collapsible=0;recursiveResize=0;outlineConnect=0;portConstraint=eastwest;newEdgeStyle={&quot;edgeStyle&quot;:&quot;elbowEdgeStyle&quot;,&quot;elbow&quot;:&quot;vertical&quot;,&quot;curved&quot;:0,&quot;rounded&quot;:0};" parent="1" vertex="1">
          <mxGeometry x="400" y="40" width="100" height="840" as="geometry" />
        </mxCell>
        <mxCell id="zECthKUtIngzaGEKfs0k-2" value="" style="html=1;points=[];perimeter=orthogonalPerimeter;outlineConnect=0;targetShapes=umlLifeline;portConstraint=eastwest;newEdgeStyle={&quot;edgeStyle&quot;:&quot;elbowEdgeStyle&quot;,&quot;elbow&quot;:&quot;vertical&quot;,&quot;curved&quot;:0,&quot;rounded&quot;:0};" parent="zECthKUtIngzaGEKfs0k-1" vertex="1">
          <mxGeometry x="45" y="140" width="10" height="50" as="geometry" />
        </mxCell>
        <mxCell id="zECthKUtIngzaGEKfs0k-32" value="" style="html=1;points=[];perimeter=orthogonalPerimeter;outlineConnect=0;targetShapes=umlLifeline;portConstraint=eastwest;newEdgeStyle={&quot;edgeStyle&quot;:&quot;elbowEdgeStyle&quot;,&quot;elbow&quot;:&quot;vertical&quot;,&quot;curved&quot;:0,&quot;rounded&quot;:0};" parent="zECthKUtIngzaGEKfs0k-1" vertex="1">
          <mxGeometry x="45" y="650" width="10" height="130" as="geometry" />
        </mxCell>
        <mxCell id="zECthKUtIngzaGEKfs0k-3" value="&amp;nbsp;统一工单" style="shape=umlLifeline;perimeter=lifelinePerimeter;whiteSpace=wrap;html=1;container=0;dropTarget=0;collapsible=0;recursiveResize=0;outlineConnect=0;portConstraint=eastwest;newEdgeStyle={&quot;edgeStyle&quot;:&quot;elbowEdgeStyle&quot;,&quot;elbow&quot;:&quot;vertical&quot;,&quot;curved&quot;:0,&quot;rounded&quot;:0};" parent="1" vertex="1">
          <mxGeometry x="560" y="40" width="100" height="840" as="geometry" />
        </mxCell>
        <mxCell id="zECthKUtIngzaGEKfs0k-4" value="" style="html=1;points=[];perimeter=orthogonalPerimeter;outlineConnect=0;targetShapes=umlLifeline;portConstraint=eastwest;newEdgeStyle={&quot;edgeStyle&quot;:&quot;elbowEdgeStyle&quot;,&quot;elbow&quot;:&quot;vertical&quot;,&quot;curved&quot;:0,&quot;rounded&quot;:0};" parent="zECthKUtIngzaGEKfs0k-3" vertex="1">
          <mxGeometry x="45" y="360" width="10" height="90" as="geometry" />
        </mxCell>
        <mxCell id="zECthKUtIngzaGEKfs0k-29" value="" style="html=1;points=[];perimeter=orthogonalPerimeter;outlineConnect=0;targetShapes=umlLifeline;portConstraint=eastwest;newEdgeStyle={&quot;edgeStyle&quot;:&quot;elbowEdgeStyle&quot;,&quot;elbow&quot;:&quot;vertical&quot;,&quot;curved&quot;:0,&quot;rounded&quot;:0};" parent="zECthKUtIngzaGEKfs0k-3" vertex="1">
          <mxGeometry x="45" y="587" width="10" height="90" as="geometry" />
        </mxCell>
        <mxCell id="zECthKUtIngzaGEKfs0k-31" value="填写工单审批意见" style="html=1;verticalAlign=bottom;endArrow=block;edgeStyle=elbowEdgeStyle;elbow=horizontal;curved=0;rounded=0;" parent="zECthKUtIngzaGEKfs0k-3" source="zECthKUtIngzaGEKfs0k-29" target="zECthKUtIngzaGEKfs0k-29" edge="1">
          <mxGeometry x="0.0748" relative="1" as="geometry">
            <mxPoint x="60" y="610" as="sourcePoint" />
            <Array as="points">
              <mxPoint x="140" y="610" />
            </Array>
            <mxPoint x="60" y="670" as="targetPoint" />
            <mxPoint as="offset" />
          </mxGeometry>
        </mxCell>
        <mxCell id="zECthKUtIngzaGEKfs0k-8" value="2.打开应用编目" style="html=1;verticalAlign=bottom;endArrow=block;edgeStyle=elbowEdgeStyle;elbow=vertical;curved=0;rounded=0;" parent="1" source="zECthKUtIngzaGEKfs0k-7" target="zECthKUtIngzaGEKfs0k-2" edge="1">
          <mxGeometry relative="1" as="geometry">
            <mxPoint x="105" y="189.5" as="sourcePoint" />
            <Array as="points">
              <mxPoint x="190" y="189.5" />
            </Array>
            <mxPoint x="275" y="189.5" as="targetPoint" />
          </mxGeometry>
        </mxCell>
        <mxCell id="zECthKUtIngzaGEKfs0k-9" value="&amp;nbsp;展示当前有权限查看的所有应用信息" style="html=1;verticalAlign=bottom;endArrow=block;edgeStyle=elbowEdgeStyle;elbow=horizontal;curved=0;rounded=0;" parent="1" source="zECthKUtIngzaGEKfs0k-2" target="zECthKUtIngzaGEKfs0k-7" edge="1">
          <mxGeometry relative="1" as="geometry">
            <mxPoint x="425" y="220" as="sourcePoint" />
            <Array as="points">
              <mxPoint x="350" y="220" />
            </Array>
            <mxPoint x="100" y="220" as="targetPoint" />
          </mxGeometry>
        </mxCell>
        <mxCell id="zECthKUtIngzaGEKfs0k-10" value="" style="html=1;points=[];perimeter=orthogonalPerimeter;outlineConnect=0;targetShapes=umlLifeline;portConstraint=eastwest;newEdgeStyle={&quot;edgeStyle&quot;:&quot;elbowEdgeStyle&quot;,&quot;elbow&quot;:&quot;vertical&quot;,&quot;curved&quot;:0,&quot;rounded&quot;:0};" parent="1" vertex="1">
          <mxGeometry x="85" y="270" width="10" height="340" as="geometry" />
        </mxCell>
        <mxCell id="zECthKUtIngzaGEKfs0k-11" value="" style="html=1;points=[];perimeter=orthogonalPerimeter;outlineConnect=0;targetShapes=umlLifeline;portConstraint=eastwest;newEdgeStyle={&quot;edgeStyle&quot;:&quot;elbowEdgeStyle&quot;,&quot;elbow&quot;:&quot;vertical&quot;,&quot;curved&quot;:0,&quot;rounded&quot;:0};" parent="1" vertex="1">
          <mxGeometry x="445" y="270" width="10" height="330" as="geometry" />
        </mxCell>
        <mxCell id="zECthKUtIngzaGEKfs0k-12" value="3.应用编目" style="html=1;verticalAlign=bottom;endArrow=block;edgeStyle=elbowEdgeStyle;elbow=vertical;curved=0;rounded=0;" parent="1" source="zECthKUtIngzaGEKfs0k-10" target="zECthKUtIngzaGEKfs0k-11" edge="1">
          <mxGeometry relative="1" as="geometry">
            <mxPoint x="105" y="279.5" as="sourcePoint" />
            <Array as="points">
              <mxPoint x="190" y="279.5" />
            </Array>
            <mxPoint x="275" y="279.5" as="targetPoint" />
          </mxGeometry>
        </mxCell>
        <mxCell id="zECthKUtIngzaGEKfs0k-13" value="返回应用编码" style="html=1;verticalAlign=bottom;endArrow=block;edgeStyle=elbowEdgeStyle;elbow=horizontal;curved=0;rounded=0;" parent="1" edge="1">
          <mxGeometry relative="1" as="geometry">
            <mxPoint x="445" y="369.5" as="sourcePoint" />
            <Array as="points">
              <mxPoint x="350" y="369.5" />
            </Array>
            <mxPoint x="95" y="369.5" as="targetPoint" />
          </mxGeometry>
        </mxCell>
        <mxCell id="zECthKUtIngzaGEKfs0k-14" value="获取用户所属行政区划&lt;br&gt;生成应用编码" style="html=1;verticalAlign=bottom;endArrow=block;edgeStyle=elbowEdgeStyle;elbow=horizontal;curved=0;rounded=0;" parent="1" target="zECthKUtIngzaGEKfs0k-11" edge="1">
          <mxGeometry x="0.1429" relative="1" as="geometry">
            <mxPoint x="455" y="300" as="sourcePoint" />
            <Array as="points">
              <mxPoint x="530" y="360" />
            </Array>
            <mxPoint x="535.5" y="340" as="targetPoint" />
            <mxPoint as="offset" />
          </mxGeometry>
        </mxCell>
        <mxCell id="zECthKUtIngzaGEKfs0k-15" value="4.填写应用编目表单信息并提交" style="html=1;verticalAlign=bottom;endArrow=block;edgeStyle=elbowEdgeStyle;elbow=vertical;curved=0;rounded=0;" parent="1" edge="1">
          <mxGeometry relative="1" as="geometry">
            <mxPoint x="95" y="410.5" as="sourcePoint" />
            <Array as="points">
              <mxPoint x="190" y="410" />
            </Array>
            <mxPoint x="445" y="410.5" as="targetPoint" />
          </mxGeometry>
        </mxCell>
        <mxCell id="zECthKUtIngzaGEKfs0k-16" value="5.创建应用编目工单" style="html=1;verticalAlign=bottom;endArrow=block;edgeStyle=elbowEdgeStyle;elbow=vertical;curved=0;rounded=0;" parent="1" source="zECthKUtIngzaGEKfs0k-11" target="zECthKUtIngzaGEKfs0k-4" edge="1">
          <mxGeometry relative="1" as="geometry">
            <mxPoint x="470" y="430.5" as="sourcePoint" />
            <Array as="points">
              <mxPoint x="565" y="430" />
            </Array>
            <mxPoint x="820" y="430.5" as="targetPoint" />
          </mxGeometry>
        </mxCell>
        <mxCell id="zECthKUtIngzaGEKfs0k-17" value="返回工单编号" style="html=1;verticalAlign=bottom;endArrow=block;edgeStyle=elbowEdgeStyle;elbow=horizontal;curved=0;rounded=0;" parent="1" source="zECthKUtIngzaGEKfs0k-4" target="zECthKUtIngzaGEKfs0k-11" edge="1">
          <mxGeometry relative="1" as="geometry">
            <mxPoint x="600" y="470" as="sourcePoint" />
            <Array as="points">
              <mxPoint x="505" y="470" />
            </Array>
            <mxPoint x="460" y="470" as="targetPoint" />
          </mxGeometry>
        </mxCell>
        <mxCell id="zECthKUtIngzaGEKfs0k-18" value="保存应用和工单关联关系&lt;br&gt;更新应用状态" style="html=1;verticalAlign=bottom;endArrow=block;edgeStyle=elbowEdgeStyle;elbow=horizontal;curved=0;rounded=0;" parent="1" edge="1">
          <mxGeometry x="0.1429" relative="1" as="geometry">
            <mxPoint x="455" y="500" as="sourcePoint" />
            <Array as="points">
              <mxPoint x="530" y="560" />
            </Array>
            <mxPoint x="455" y="560" as="targetPoint" />
            <mxPoint as="offset" />
          </mxGeometry>
        </mxCell>
        <mxCell id="zECthKUtIngzaGEKfs0k-19" value="返回应用的最新状态" style="html=1;verticalAlign=bottom;endArrow=block;edgeStyle=elbowEdgeStyle;elbow=horizontal;curved=0;rounded=0;" parent="1" edge="1">
          <mxGeometry relative="1" as="geometry">
            <mxPoint x="445" y="590" as="sourcePoint" />
            <Array as="points">
              <mxPoint x="350" y="590" />
            </Array>
            <mxPoint x="95" y="590" as="targetPoint" />
          </mxGeometry>
        </mxCell>
        <mxCell id="zECthKUtIngzaGEKfs0k-20" value="6.应用编目工单审批" style="html=1;verticalAlign=bottom;endArrow=block;edgeStyle=elbowEdgeStyle;elbow=vertical;curved=0;rounded=0;" parent="1" target="zECthKUtIngzaGEKfs0k-29" edge="1">
          <mxGeometry relative="1" as="geometry">
            <mxPoint x="95" y="640.5" as="sourcePoint" />
            <Array as="points">
              <mxPoint x="190" y="640" />
            </Array>
            <mxPoint x="600" y="640" as="targetPoint" />
          </mxGeometry>
        </mxCell>
        <mxCell id="zECthKUtIngzaGEKfs0k-33" value="返回工单审批状态" style="html=1;verticalAlign=bottom;endArrow=block;edgeStyle=elbowEdgeStyle;elbow=horizontal;curved=0;rounded=0;" parent="1" edge="1">
          <mxGeometry relative="1" as="geometry">
            <mxPoint x="605" y="710" as="sourcePoint" />
            <Array as="points">
              <mxPoint x="505" y="710" />
            </Array>
            <mxPoint x="455" y="710" as="targetPoint" />
          </mxGeometry>
        </mxCell>
        <mxCell id="zECthKUtIngzaGEKfs0k-34" value="更新应用状态" style="html=1;verticalAlign=bottom;endArrow=block;edgeStyle=elbowEdgeStyle;elbow=horizontal;curved=0;rounded=0;" parent="1" edge="1">
          <mxGeometry x="0.1429" relative="1" as="geometry">
            <mxPoint x="455" y="730" as="sourcePoint" />
            <Array as="points">
              <mxPoint x="530" y="790" />
            </Array>
            <mxPoint x="455" y="790" as="targetPoint" />
            <mxPoint as="offset" />
          </mxGeometry>
        </mxCell>
        <mxCell id="zECthKUtIngzaGEKfs0k-35" value="返回应用的最新状态" style="html=1;verticalAlign=bottom;endArrow=block;edgeStyle=elbowEdgeStyle;elbow=horizontal;curved=0;rounded=0;" parent="1" edge="1">
          <mxGeometry relative="1" as="geometry">
            <mxPoint x="445" y="820" as="sourcePoint" />
            <Array as="points">
              <mxPoint x="350" y="820" />
            </Array>
            <mxPoint x="95" y="820" as="targetPoint" />
          </mxGeometry>
        </mxCell>
      </root>
    </mxGraphModel>
  </diagram>
</mxfile>
